<svg xmlns="http://www.w3.org/2000/svg" width="152.4mm" height="152.4mm" viewBox="0 0 152.4 152.4">
  <title>clayline tile: endless-knot — Tibetan shrivatsa — one closed weaving line</title>
  <g fill="none" stroke="rgb(139, 125, 116)" stroke-width="4.572" stroke-linecap="round" stroke-linejoin="round">
    <path d="M 63.641 69.056 L 74.357 83.344 L 84.069 95.398 L 92.777 105.218 L 100.482 112.805 L 107.182 118.158 L 112.880 121.277 L 117.573 122.163 L 121.263 120.815 L 123.949 117.234 L 125.295 112.762 L 125.303 107.399 L 123.970 101.146 L 121.298 94.002 L 117.287 85.968 L 111.937 77.043 L 105.246 67.227 L 97.217 56.521 L 89.409 48.197 L 81.822 42.253 L 74.457 38.691 L 67.313 37.509 L 60.391 38.710 L 53.690 42.291 L 47.211 48.254 L 40.953 56.598 L 36.034 64.641 L 32.455 72.385 L 30.216 79.829 L 29.316 86.973 L 29.755 93.816 L 31.534 100.360 L 34.652 106.604 L 39.110 112.547 L 44.239 116.110 L 50.040 117.291 L 56.512 116.091 L 63.656 112.509 L 71.471 106.547 L 79.958 98.203 L 89.116 87.478 L 98.946 74.371 L 107.436 62.755 L 114.587 52.630 L 120.398 43.996 L 124.870 36.852 L 128.003 31.199 L 129.796 27.037 L 130.250 24.365 L 129.364 23.184 L 127.249 23.936 L 123.906 26.622 L 119.334 31.242 L 113.533 37.795 L 106.504 46.282 L 98.246 56.702 L 88.759 69.056 L 78.043 83.344 L 68.331 95.398 L 59.623 105.218 L 51.918 112.805 L 45.218 118.158 L 39.520 121.277 L 34.827 122.163 L 31.137 120.815 L 28.451 117.234 L 27.105 112.762 L 27.097 107.399 L 28.430 101.146 L 31.102 94.002 L 35.113 85.968 L 40.463 77.043 L 47.154 67.227 L 55.183 56.521 L 62.991 48.197 L 70.578 42.253 L 77.943 38.691 L 85.087 37.509 L 92.009 38.710 L 98.710 42.291 L 105.189 48.254 L 111.447 56.598 L 116.366 64.641 L 119.945 72.385 L 122.184 79.829 L 123.084 86.973 L 122.645 93.816 L 120.866 100.360 L 117.748 106.604 L 113.290 112.547 L 108.161 116.110 L 102.360 117.291 L 95.888 116.091 L 88.744 112.509 L 80.929 106.547 L 72.442 98.203 L 63.284 87.478 L 53.454 74.371 L 44.964 62.755 L 37.813 52.630 L 32.002 43.996 L 27.530 36.852 L 24.397 31.199 L 22.604 27.037 L 22.150 24.365 L 23.036 23.184 L 25.151 23.936 L 28.494 26.622 L 33.066 31.242 L 38.867 37.795 L 45.896 46.282 L 54.154 56.702 L 63.641 69.056 Z"/>
  </g>
</svg>
